<svg width="18" height="20" viewBox="0 0 18 20" fill="none" xmlns="http://www.w3.org/2000/svg">
<path d="M13.5833 0.833008H4.41667C1.66667 0.833008 0.75 2.47384 0.75 4.49967V19.1663H6.25V13.6113C6.25 13.1347 6.635 12.7497 7.11167 12.7497H10.8975C11.365 12.7497 11.7592 13.1347 11.7592 13.6113V19.1663H17.2592V4.49967C17.25 2.47384 16.3333 0.833008 13.5833 0.833008ZM11.2917 7.47884H9.6875V9.08301C9.6875 9.45884 9.37583 9.77051 9 9.77051C8.62417 9.77051 8.3125 9.45884 8.3125 9.08301V7.47884H6.70833C6.3325 7.47884 6.02083 7.16717 6.02083 6.79134C6.02083 6.41551 6.3325 6.10384 6.70833 6.10384H8.3125V4.49967C8.3125 4.12384 8.62417 3.81217 9 3.81217C9.37583 3.81217 9.6875 4.12384 9.6875 4.49967V6.10384H11.2917C11.6675 6.10384 11.9792 6.41551 11.9792 6.79134C11.9792 7.16717 11.6675 7.47884 11.2917 7.47884Z" fill="#EE5D60"/>
</svg>
